<mxfile host="app.diagrams.net" modified="2024-04-02T13:25:11.557Z" agent="Mozilla/5.0 (Windows NT 10.0; Win64; x64) AppleWebKit/537.36 (KHTML, like Gecko) Chrome/123.0.0.0 Safari/537.36" version="24.2.1" etag="henMZ-AIU3uTeXiM39Ya" type="github">
  <diagram name="PÃ¡gina-1" id="TacbZwmPsqF689zv-cn1">
    <mxGraphModel>
      <root>
        <mxCell id="0" />
        <mxCell id="1" parent="0" />
      </root>
    </mxGraphModel>
  </diagram>
</mxfile>
